<svg width="48" height="49" viewBox="0 0 48 49" fill="none" xmlns="http://www.w3.org/2000/svg">
<g clip-path="url(#clip0_3628_3332)">
<path d="M24 48.046C37.2548 48.046 48 37.2905 48 24.023C48 10.7555 37.2548 0 24 0C10.7452 0 0 10.7555 0 24.023C0 37.2905 10.7452 48.046 24 48.046Z" fill="#4D76A1"/>
<path fill-rule="evenodd" clip-rule="evenodd" d="M23.0933 34.5592H24.977C24.977 34.5592 25.546 34.4967 25.8365 34.1832C26.1039 33.8955 26.0953 33.355 26.0953 33.355C26.0953 33.355 26.0585 30.825 27.2316 30.4525C28.388 30.0855 29.873 32.8977 31.447 33.979C32.6372 34.7973 33.5416 34.6179 33.5416 34.6179L37.7501 34.5592C37.7501 34.5592 39.9517 34.4235 38.9078 32.6908C38.8222 32.5491 38.2998 31.4091 35.7787 29.0667C33.1399 26.6151 33.4933 27.0116 36.672 22.7708C38.6079 20.1882 39.3818 18.6114 39.1401 17.9361C38.9095 17.2929 37.4857 17.4629 37.4857 17.4629L32.7471 17.4924C32.7471 17.4924 32.3959 17.4445 32.1353 17.6003C31.8808 17.7532 31.7169 18.1095 31.7169 18.1095C31.7169 18.1095 30.967 20.1081 29.9667 21.8077C27.8567 25.3942 27.013 25.5835 26.6682 25.3608C25.866 24.8418 26.0662 23.2757 26.0662 22.1632C26.0662 18.6876 26.5929 17.2385 25.0408 16.8634C24.5257 16.7387 24.1466 16.6565 22.8293 16.6433C21.1386 16.6257 19.7075 16.6484 18.8972 17.0458C18.3582 17.31 17.9423 17.8988 18.1956 17.9327C18.5088 17.9746 19.2181 18.1241 19.5941 18.6367C20.0797 19.2979 20.0626 20.783 20.0626 20.783C20.0626 20.783 20.3416 24.8743 19.411 25.3826C18.7723 25.7312 17.8961 25.0195 16.015 21.7658C15.0511 20.0991 14.3234 18.2568 14.3234 18.2568C14.3234 18.2568 14.183 17.9125 13.9328 17.7284C13.629 17.5053 13.2046 17.4342 13.2046 17.4342L8.70178 17.4637C8.70178 17.4637 8.02582 17.4826 7.77768 17.7768C7.55693 18.0384 7.76014 18.5797 7.76014 18.5797C7.76014 18.5797 11.2854 26.8352 15.277 30.9955C18.937 34.8097 23.0933 34.5592 23.0933 34.5592Z" fill="white"/>
</g>
<defs>
<clipPath id="clip0_3628_3332">
<rect width="48" height="48.046" fill="white"/>
</clipPath>
</defs>
</svg>
