<svg width="48" height="49" viewBox="0 0 48 49" fill="none" xmlns="http://www.w3.org/2000/svg">
<g clip-path="url(#clip0_3628_3326)">
<path d="M23.9871 0.0127069C10.7401 0.0155204 0.00357906 10.767 0.00638989 24.0267C0.00732684 28.6181 1.32364 33.1129 3.79905 36.9783L0.0672913 46.6699C-0.131435 47.1853 0.124914 47.7644 0.639859 47.9633C0.755009 48.0078 0.877281 48.0306 1.00068 48.0304C1.11517 48.031 1.22882 48.0114 1.33648 47.9723L11.3306 44.401C22.5751 51.4109 37.3677 47.9693 44.3709 36.714C51.374 25.4587 47.9357 10.6519 36.6912 3.64207C32.8795 1.26576 28.4778 0.008299 23.9871 0.0127069Z" fill="#55CD6C"/>
<path d="M35.4225 28.1249C35.4225 28.1249 32.974 26.9245 31.4409 26.1242C29.7059 25.2299 27.6671 26.9045 26.7077 27.8569C25.2145 27.2827 23.8507 26.4162 22.6961 25.3079C21.5887 24.1524 20.723 22.7873 20.1495 21.2925C21.101 20.3301 22.77 18.2914 21.8806 16.5548C21.091 15.0182 19.8818 12.5693 19.8818 12.5673C19.7121 12.2303 19.3674 12.0175 18.9903 12.0171H16.9915C14.0806 12.5203 11.9641 15.0626 11.9945 18.0193C11.9945 21.1604 15.7502 27.1947 18.2828 29.7315C20.8153 32.2684 26.8437 36.0259 29.9838 36.0259C32.9376 36.0563 35.4775 33.9377 35.9803 31.0241V29.0234C35.9806 28.6419 35.7643 28.2935 35.4225 28.1249Z" fill="#FAFAFA"/>
</g>
<defs>
<clipPath id="clip0_3628_3326">
<rect width="48" height="48.046" fill="white"/>
</clipPath>
</defs>
</svg>
